<svg width="40" height="41" fill="none" xmlns="http://www.w3.org/2000/svg"><rect y=".063" width="40" height="40" rx="20" fill="#C9CED5" fill-opacity=".16"/><path d="M20 11.87h4.096c.964 0 1.446.24 1.808.361.482.241.843.362 1.204.723.362.361.603.723.723 1.205.12.361.241.843.362 1.807V24.16c0 .964-.241 1.446-.362 1.807-.24.482-.361.843-.723 1.205-.361.361-.723.602-1.204.723-.362.12-.844.24-1.808.361h-8.192c-.964 0-1.446-.24-1.808-.361-.482-.241-.843-.362-1.204-.723-.362-.361-.603-.723-.723-1.205-.12-.361-.241-.843-.362-1.807V15.966c0-.964.241-1.446.362-1.807.24-.482.361-.844.723-1.205.361-.361.723-.602 1.204-.723.362-.12.844-.24 1.808-.361H20Zm0-1.807h-4.096c-1.085 0-1.808.24-2.41.481a5.263 5.263 0 0 0-1.807 1.205c-.603.603-.844 1.085-1.205 1.807-.241.603-.361 1.326-.482 2.41V24.16c0 1.084.241 1.807.482 2.41a5.263 5.263 0 0 0 1.205 1.807c.602.602 1.084.843 1.807 1.205.602.24 1.325.361 2.41.482h8.192c1.085 0 1.808-.241 2.41-.482a5.263 5.263 0 0 0 1.807-1.205c.603-.603.844-1.085 1.205-1.808.241-.602.361-1.325.482-2.41v-8.192c0-1.084-.241-1.807-.482-2.41a5.263 5.263 0 0 0-1.205-1.807c-.602-.602-1.084-.843-1.807-1.205-.602-.24-1.325-.361-2.41-.482H20Z" fill="#fff" fill-opacity=".87"/><path d="M20 14.882a5.142 5.142 0 0 0-5.18 5.18c0 2.892 2.288 5.181 5.18 5.181s5.18-2.289 5.18-5.18c0-2.892-2.288-5.181-5.18-5.181Zm0 8.554a3.368 3.368 0 0 1-3.373-3.373A3.368 3.368 0 0 1 20 16.689a3.368 3.368 0 0 1 3.373 3.373c0 1.808-1.566 3.374-3.373 3.374ZM25.301 15.966a1.205 1.205 0 1 0 0-2.41 1.205 1.205 0 0 0 0 2.41Z" fill="#fff" fill-opacity=".87"/></svg>