<svg width="40" height="41" viewBox="0 0 40 41" fill="none" xmlns="http://www.w3.org/2000/svg">
<g clip-path="url(#clip0_8262_5024)">
<rect y="0.0625" width="40" height="40" rx="20" fill="#C9CED5" fill-opacity="0.16"/>
<path d="M29.9762 14.3161C28.5829 14.316 27.2467 13.7625 26.2615 12.7773C25.2763 11.7921 24.7228 10.4558 24.7229 9.0625H20.9695V23.7599C20.9688 24.43 20.7572 25.0828 20.3648 25.626C19.9723 26.1691 19.4188 26.5749 18.7828 26.7859C18.1468 26.9969 17.4605 27.0024 16.8212 26.8016C16.182 26.6007 15.6221 26.2038 15.221 25.667C14.8199 25.1302 14.5979 24.4808 14.5865 23.8108C14.5751 23.1408 14.7749 22.4842 15.1575 21.9341C15.5401 21.384 16.0862 20.9683 16.7183 20.7458C17.3504 20.5234 18.0364 20.5055 18.6792 20.6948V17.0462C17.3132 16.862 15.9234 17.0989 14.6955 17.7254C13.4677 18.3518 12.4601 19.338 11.8074 20.5521C11.1548 21.7662 10.888 23.1506 11.0429 24.5203C11.1977 25.89 11.7667 27.1799 12.6739 28.2177C13.5811 29.2555 14.7834 29.9919 16.1201 30.3285C17.4568 30.665 18.8644 30.5858 20.1549 30.1013C21.4454 29.6168 22.5574 28.7501 23.3424 27.617C24.1273 26.4839 24.5479 25.1383 24.548 23.7599L24.6575 16.3308C26.1997 17.4629 28.0635 18.0721 29.9766 18.0692L29.9762 14.3161Z" fill="white" fill-opacity="0.87"/>
</g>
<defs>
<clipPath id="clip0_8262_5024">
<rect width="40" height="40" fill="white" transform="translate(0 0.0625)"/>
</clipPath>
</defs>
</svg>
