<svg xmlns="http://www.w3.org/2000/svg" width="40" height="41" fill="none"><rect width="40" height="40" y=".063" fill="#C9CED5" fill-opacity=".16" rx="20"/><path fill="#fff" fill-opacity=".87" d="M20.983 27.063c-7.517 0-11.804-5.256-11.983-14h3.765c.124 6.418 2.9 9.137 5.098 9.697v-9.698h3.546v5.536c2.17-.238 4.452-2.76 5.221-5.535h3.546a10.789 10.789 0 0 1-1.698 4.002 10.558 10.558 0 0 1-3.126 2.976 10.895 10.895 0 0 1 3.563 2.893A11.153 11.153 0 0 1 31 27.062h-3.903a6.94 6.94 0 0 0-2.104-3.377 6.726 6.726 0 0 0-3.584-1.625v5.003h-.426Z"/></svg>