<svg xmlns="http://www.w3.org/2000/svg" width="40" height="41" fill="none"><rect width="40" height="40" y=".063" fill="#C9CED5" fill-opacity=".16" rx="20"/><path fill="#fff" fill-opacity=".87" fill-rule="evenodd" d="M11.262 27.12a2.568 2.568 0 0 1-1.043-.603 2.487 2.487 0 0 1-.642-1.003c-.734-1.964-.952-10.165.462-11.783a2.742 2.742 0 0 1 1.849-.903c3.792-.398 15.51-.345 16.855.133.379.12.725.322 1.012.59.287.27.508.598.646.963.802 2.03.83 9.407-.108 11.358a2.538 2.538 0 0 1-1.183 1.168c-1.413.69-15.972.676-17.848.08Zm6.022-3.849 6.797-3.45-6.797-3.476v6.926Z" clip-rule="evenodd"/></svg>