<svg width="40" height="41" fill="none" xmlns="http://www.w3.org/2000/svg"><path d="M0 20.063c0-11.046 8.954-20 20-20s20 8.954 20 20c0 11.045-8.954 20-20 20s-20-8.955-20-20Z" fill="#C9CED5" fill-opacity=".16"/><path d="M21.929 21.991c-1.572 1.622-1.686 3.643-1.822 8.072 4.129 0 6.979-.015 8.45-1.443C29.986 27.148 30 24.163 30 20.17c-4.429.142-6.45.25-8.071 1.821ZM10 20.17c0 3.992.014 6.978 1.443 8.45 1.471 1.428 4.321 1.442 8.45 1.442-.143-4.428-.25-6.45-1.822-8.07C16.45 20.42 14.43 20.304 10 20.17Zm9.893-10.108c-4.122 0-6.979.015-8.45 1.443C10.014 12.977 10 15.962 10 19.955c4.429-.142 6.45-.25 8.071-1.821 1.572-1.622 1.686-3.643 1.822-8.072Zm2.036 8.072c-1.572-1.622-1.686-3.643-1.822-8.072 4.129 0 6.979.015 8.45 1.443C29.986 12.977 30 15.962 30 19.955c-4.429-.142-6.45-.25-8.071-1.821Z" fill="#fff" fill-opacity=".87"/><path d="M30 20.17v-.215c-4.429-.142-6.45-.25-8.071-1.821-1.572-1.622-1.686-3.643-1.822-8.072h-.214c-.143 4.43-.25 6.45-1.822 8.072C16.45 19.705 14.43 19.82 10 19.955v.215c4.429.142 6.45.25 8.071 1.821 1.572 1.622 1.686 3.643 1.822 8.072h.214c.143-4.43.25-6.45 1.822-8.072C23.55 20.42 25.57 20.305 30 20.17" fill="#C9CED5" fill-opacity=".16"/></svg>