<svg width="40" height="40" viewBox="0 0 40 40" fill="none" xmlns="http://www.w3.org/2000/svg">
<path fill-rule="evenodd" clip-rule="evenodd" d="M8.33073 11.6693C7.41406 11.6693 6.66406 10.9193 6.66406 10.0026C6.66406 9.08594 7.41406 8.33594 8.33073 8.33594H31.6641C32.5807 8.33594 33.3307 9.08594 33.3307 10.0026C33.3307 10.9193 32.5807 11.6693 31.6641 11.6693H8.33073ZM8.33073 18.3359H31.6641C32.5807 18.3359 33.3307 17.5859 33.3307 16.6693C33.3307 15.7526 32.5807 15.0026 31.6641 15.0026H8.33073C7.41406 15.0026 6.66406 15.7526 6.66406 16.6693C6.66406 17.5859 7.41406 18.3359 8.33073 18.3359ZM31.6641 25.0026H8.33073C7.41406 25.0026 6.66406 24.2526 6.66406 23.3359C6.66406 22.4193 7.41406 21.6693 8.33073 21.6693H31.6641C32.5807 21.6693 33.3307 22.4193 33.3307 23.3359C33.3307 24.2526 32.5807 25.0026 31.6641 25.0026ZM31.6641 31.6693H8.33073C7.41406 31.6693 6.66406 30.9193 6.66406 30.0026C6.66406 29.0859 7.41406 28.3359 8.33073 28.3359H31.6641C32.5807 28.3359 33.3307 29.0859 33.3307 30.0026C33.3307 30.9193 32.5807 31.6693 31.6641 31.6693Z" fill="white" fill-opacity="0.87"/>
</svg>
