<svg width="36" height="35" viewBox="0 0 36 35" fill="none" xmlns="http://www.w3.org/2000/svg">
<path fill-rule="evenodd" clip-rule="evenodd" d="M18 0C8.34 0 0.5 7.84 0.5 17.5C0.5 27.16 8.34 35 18 35C27.66 35 35.5 27.16 35.5 17.5C35.5 7.84 27.66 0 18 0ZM18 31.5C10.2825 31.5 4 25.2175 4 17.5C4 9.7825 10.2825 3.5 18 3.5C25.7175 3.5 32 9.7825 32 17.5C32 25.2175 25.7175 31.5 18 31.5ZM14.5 21.2975L24.79 11.0075C25.4725 10.325 26.5925 10.325 27.275 11.0075C27.9575 11.69 27.9575 12.7925 27.275 13.475L15.7425 25.0075C15.06 25.69 13.9575 25.69 13.275 25.0075L8.7425 20.475C8.06 19.7925 8.06 18.69 8.7425 18.0075C9.06946 17.6798 9.51334 17.4956 9.97625 17.4956C10.4392 17.4956 10.883 17.6798 11.21 18.0075L14.5 21.2975Z" fill="white" fill-opacity="0.87"/>
</svg>
