<svg xmlns="http://www.w3.org/2000/svg" width="28" height="30" fill="none"><path fill="url(#a)" d="M.704 30C.234 29.766 0 29.18 0 28.594V2.228c0-.469.117-.82.235-1.29C.352.706.587.47.82.237c5.045 5.039 9.973 10.078 14.9 15.116C10.676 20.04 5.749 24.962.704 30Z"/><path fill="url(#b)" d="M20.65 10.195c-1.408 1.406-2.933 2.812-4.34 4.336C11.615 9.726 6.805 4.92 2.112.117c0 0 0-.117.118-.117 6.1 3.398 12.2 6.797 18.419 10.195Z"/><path fill="url(#c)" d="M2.113 29.998c4.693-4.687 9.503-9.374 14.196-14.062 1.29 1.29 2.698 2.579 4.224 3.985C14.432 23.319 8.33 26.717 2.23 29.998h-.118Z"/><path fill="url(#d)" d="M21.349 19.453c-1.525-1.406-2.933-2.812-4.458-4.218l4.575-4.57c.47.234.939.468 1.408.82 1.173.703 2.464 1.289 3.637 1.992.352.117.587.351.821.703.47.586.47 1.172 0 1.758-.235.234-.47.469-.821.586-1.643 1.054-3.402 1.992-5.162 2.93Z"/><defs><linearGradient id="a" x1="3.668" x2="20.73" y1="2.716" y2="14.231" gradientUnits="userSpaceOnUse"><stop stop-color="#FF00F5"/><stop offset="1" stop-color="#00F0FF"/></linearGradient><linearGradient id="b" x1="6.439" x2="14.445" y1="1.211" y2="14.262" gradientUnits="userSpaceOnUse"><stop stop-color="#FF00F5"/><stop offset="1" stop-color="#00F0FF"/></linearGradient><linearGradient id="c" x1="6.411" x2="14.065" y1="17.108" y2="29.919" gradientUnits="userSpaceOnUse"><stop stop-color="#FF00F5"/><stop offset="1" stop-color="#00F0FF"/></linearGradient><linearGradient id="d" x1="19.409" x2="24.333" y1="11.397" y2="19.124" gradientUnits="userSpaceOnUse"><stop stop-color="#FF00F5"/><stop offset="1" stop-color="#00F0FF"/></linearGradient></defs></svg>