<svg width="26" height="30" fill="none" xmlns="http://www.w3.org/2000/svg"><path d="M21.596 15.954c-.035-3.79 3.183-5.634 3.33-5.72-1.822-2.59-4.647-2.944-5.64-2.973-2.372-.243-4.673 1.384-5.881 1.384-1.233 0-3.094-1.36-5.1-1.32-2.58.039-4.995 1.496-6.32 3.758-2.733 4.613-.694 11.393 1.924 15.122 1.31 1.826 2.84 3.865 4.844 3.793 1.96-.079 2.692-1.218 5.057-1.218 2.343 0 3.03 1.218 5.074 1.172 2.103-.033 3.428-1.834 4.692-3.677 1.513-2.093 2.121-4.154 2.145-4.26-.05-.017-4.085-1.518-4.125-6.061Z" fill="url(#a)"/><path d="M17.737 4.808C18.79 3.523 19.512 1.774 19.312 0c-1.526.066-3.434 1.029-4.532 2.286-.973 1.108-1.84 2.923-1.617 4.63 1.714.126 3.474-.842 4.574-2.108Z" fill="url(#b)"/><defs><linearGradient id="a" x1="6.529" y1="2.5" x2="25.034" y2="22.231" gradientUnits="userSpaceOnUse"><stop stop-color="#BC00B5"/><stop offset="1" stop-color="#00A9DE"/></linearGradient><linearGradient id="b" x1="6.529" y1="2.5" x2="25.034" y2="22.231" gradientUnits="userSpaceOnUse"><stop stop-color="#BC00B5"/><stop offset="1" stop-color="#00A9DE"/></linearGradient></defs></svg>