<svg width="25" height="25" fill="none" xmlns="http://www.w3.org/2000/svg"><path fill-rule="evenodd" clip-rule="evenodd" d="M0 10C0 4.48 4.47 0 9.99 0 15.52 0 20 4.48 20 10S15.52 20 9.99 20C4.47 20 0 15.52 0 10Zm13.97-4h2.95a8.03 8.03 0 0 0-4.33-3.56c.6 1.11 1.06 2.31 1.38 3.56ZM10 2.04c.83 1.2 1.48 2.53 1.91 3.96H8.09C8.52 4.57 9.17 3.24 10 2.04ZM2 10c0 .69.1 1.36.26 2h3.38c-.08-.66-.14-1.32-.14-2 0-.68.06-1.34.14-2H2.26C2.1 8.64 2 9.31 2 10Zm1.08 4h2.95c.32 1.25.78 2.45 1.38 3.56A7.987 7.987 0 0 1 3.08 14Zm0-8h2.95c.32-1.25.78-2.45 1.38-3.56-1.84.63-3.37 1.9-4.33 3.56ZM10 17.96c-.83-1.2-1.48-2.53-1.91-3.96h3.82c-.43 1.43-1.08 2.76-1.91 3.96ZM7.5 10c0 .68.07 1.34.16 2h4.68c.09-.66.16-1.32.16-2 0-.68-.07-1.35-.16-2H7.66c-.09.65-.16 1.32-.16 2Zm5.09 7.56c.6-1.11 1.06-2.31 1.38-3.56h2.95a8.03 8.03 0 0 1-4.33 3.56ZM14.5 10c0 .68-.06 1.34-.14 2h3.38c.16-.64.26-1.31.26-2s-.1-1.36-.26-2h-3.38c.08.66.14 1.32.14 2Z" fill="#fff" fill-opacity=".87"/></svg>