<svg width="148" height="24" fill="none" xmlns="http://www.w3.org/2000/svg"><g filter="url(#a)"><path d="m8.34 13.771-.1-.033-.166-.033-.03-.008c-.77-.2-2.18-.566-3.492-1.449-1.86-1.225-2.89-3.012-2.99-5.23-.1-1.854.498-3.476 1.694-4.734C4.984.497 7.476 0 8.672 0c3.383 0 5.276 1.22 6.968 2.311l.009.006.764.497-2.425 3.94-.83-.53-.036-.023c-1.475-.947-2.44-1.567-4.45-1.567-.3 0-1.462.232-2.06.861-.2.199-.432.563-.399 1.324.033 1.192.864 1.854 2.99 2.384.266.066.465.132.665.198 2.226.762 3.954 1.788 5.15 3.079 1.196 1.324 1.827 2.88 1.827 4.535 0 1.622-.698 3.31-1.86 4.602A7.087 7.087 0 0 1 9.635 24c-1.03 0-2.425-.066-4.086-.563-2.094-.662-3.954-1.82-5.549-3.509l3.389-3.178c2.459 2.616 5.216 2.616 6.246 2.616 1.927 0 2.559-1.755 2.559-2.35 0-1.259-1.43-2.417-3.855-3.245Z" fill="url(#b)"/><path d="M31.62.331h15.516v4.635H36.27v4.27h8.97v4.634h-8.97v9.667H31.62V.33Z" fill="url(#c)"/><path d="M62.428.331h15.516v4.635H62.428V.33Z" fill="url(#d)"/><path d="M75.286 13.903H62.428V9.27h12.858v4.634Z" fill="url(#e)"/><path d="M77.844 23.537H62.428v-4.635h15.416v4.635Z" fill="url(#f)"/><path d="M104.813 7.283c0-1.291-1.03-2.35-2.326-2.35h-4.452v18.57h-4.652V.299h9.104c3.854 0 6.977 3.145 6.977 6.985a6.914 6.914 0 0 1-4.087 6.322l4.619 9.932h-4.951l-4.352-9.302V9.6h1.794a2.307 2.307 0 0 0 2.326-2.317Z" fill="url(#g)"/><path d="M123.26 23.537 135.121.33h1.362l10.998 23.206h-5.15l-1.549-3.287h-5.728V16.29h3.863l-3.231-6.857-7.21 14.103h-5.216Z" fill="url(#h)"/></g><defs><linearGradient id="b" x1="73.74" y1="0" x2="73.74" y2="24" gradientUnits="userSpaceOnUse"><stop stop-color="#2E2E31"/><stop offset="1" stop-color="#18181A"/></linearGradient><linearGradient id="c" x1="73.74" y1="0" x2="73.74" y2="24" gradientUnits="userSpaceOnUse"><stop stop-color="#2E2E31"/><stop offset="1" stop-color="#18181A"/></linearGradient><linearGradient id="d" x1="73.74" y1="0" x2="73.74" y2="24" gradientUnits="userSpaceOnUse"><stop stop-color="#2E2E31"/><stop offset="1" stop-color="#18181A"/></linearGradient><linearGradient id="e" x1="73.74" y1="0" x2="73.74" y2="24" gradientUnits="userSpaceOnUse"><stop stop-color="#2E2E31"/><stop offset="1" stop-color="#18181A"/></linearGradient><linearGradient id="f" x1="73.74" y1="0" x2="73.74" y2="24" gradientUnits="userSpaceOnUse"><stop stop-color="#2E2E31"/><stop offset="1" stop-color="#18181A"/></linearGradient><linearGradient id="g" x1="73.74" y1="0" x2="73.74" y2="24" gradientUnits="userSpaceOnUse"><stop stop-color="#2E2E31"/><stop offset="1" stop-color="#18181A"/></linearGradient><linearGradient id="h" x1="73.74" y1="0" x2="73.74" y2="24" gradientUnits="userSpaceOnUse"><stop stop-color="#2E2E31"/><stop offset="1" stop-color="#18181A"/></linearGradient><filter id="a" x="0" y="0" width="148.2" height="26.567" filterUnits="userSpaceOnUse" color-interpolation-filters="sRGB"><feFlood flood-opacity="0" result="BackgroundImageFix"/><feBlend in="SourceGraphic" in2="BackgroundImageFix" result="shape"/><feColorMatrix in="SourceAlpha" values="0 0 0 0 0 0 0 0 0 0 0 0 0 0 0 0 0 0 127 0" result="hardAlpha"/><feOffset dx=".715" dy="2.861"/><feGaussianBlur stdDeviation="1.284"/><feComposite in2="hardAlpha" operator="arithmetic" k2="-1" k3="1"/><feColorMatrix values="0 0 0 0 0 0 0 0 0 0 0 0 0 0 0 0 0 0 0.5 0"/><feBlend in2="shape" result="effect1_innerShadow_8835_46365"/></filter></defs></svg>