<svg xmlns="http://www.w3.org/2000/svg" width="247" height="40" fill="none"><g fill="#fff" filter="url(#a)"><path d="m14.497 22.952-.166-.055-.277-.056-.05-.012c-1.284-.334-3.633-.944-5.82-2.415-3.101-2.042-4.818-5.02-4.984-8.717-.166-3.09.83-5.794 2.824-7.89C8.904.827 13.057 0 15.051 0c5.638 0 8.793 2.034 11.613 3.852l.015.01 1.274.828-4.042 6.565-1.385-.883-.058-.037c-2.459-1.579-4.066-2.61-7.417-2.61-.499 0-2.437.385-3.434 1.434-.332.33-.72.938-.664 2.207.055 1.986 1.44 3.09 4.984 3.972.443.11.775.22 1.107.331 3.71 1.269 6.59 2.98 8.583 5.131 1.994 2.207 3.046 4.8 3.046 7.559 0 2.703-1.163 5.517-3.101 7.669C23.302 38.566 20.145 40 16.656 40c-1.716 0-4.042-.11-6.81-.938-3.49-1.103-6.59-3.034-9.248-5.848l5.648-5.297c4.098 4.359 8.694 4.359 10.41 4.359 3.212 0 4.264-2.924 4.264-3.917 0-2.097-2.38-4.028-6.423-5.407ZM53.297.552h25.86v7.724H61.05v7.117H76v7.724H61.05v16.11h-7.753V.553ZM104.645.552h25.86v7.724h-25.86V.552ZM126.075 23.172h-21.43v-7.724h21.43v7.724ZM130.339 39.228h-25.694v-7.725h25.694v7.725ZM175.285 12.138c0-2.152-1.716-3.917-3.876-3.917h-7.42v30.951h-7.753V.497h15.173c6.424 0 11.629 5.24 11.629 11.64 0 4.69-2.769 8.718-6.811 10.539l7.697 16.552h-8.251l-7.254-15.504V16h2.99c2.16 0 3.876-1.71 3.876-3.862ZM206.031 39.228 225.8.552h2.27l18.329 38.676h-8.583l-2.581-5.479h-9.548v-6.597h6.439l-5.385-11.428-12.016 23.504h-8.694Z"/></g><defs><filter id="a" width="246.516" height="42.567" x=".598" y="0" color-interpolation-filters="sRGB" filterUnits="userSpaceOnUse"><feFlood flood-opacity="0" result="BackgroundImageFix"/><feBlend in="SourceGraphic" in2="BackgroundImageFix" result="shape"/><feColorMatrix in="SourceAlpha" result="hardAlpha" values="0 0 0 0 0 0 0 0 0 0 0 0 0 0 0 0 0 0 127 0"/><feOffset dx=".715" dy="2.861"/><feGaussianBlur stdDeviation="1.284"/><feComposite in2="hardAlpha" k2="-1" k3="1" operator="arithmetic"/><feColorMatrix values="0 0 0 0 0 0 0 0 0 0 0 0 0 0 0 0 0 0 0.5 0"/><feBlend in2="shape" result="effect1_innerShadow_6961_2109"/></filter></defs></svg>