<svg width="79" height="78" viewBox="0 0 79 78" fill="none" xmlns="http://www.w3.org/2000/svg">
<g filter="url(#filter0_dd_8607_38652)">
<path fill-rule="evenodd" clip-rule="evenodd" d="M39.5 10.3953C23.7021 10.3953 10.8953 23.2021 10.8953 39C10.8953 54.7979 23.7021 67.6046 39.5 67.6046C55.2979 67.6046 68.1047 54.7979 68.1047 39C68.1047 23.2021 55.2979 10.3953 39.5 10.3953ZM9.5 39C9.5 22.4315 22.9315 9 39.5 9C56.0685 9 69.5 22.4315 69.5 39C69.5 55.5685 56.0685 69 39.5 69C22.9315 69 9.5 55.5685 9.5 39Z" fill="white" fill-opacity="0.87"/>
<path fill-rule="evenodd" clip-rule="evenodd" d="M40.0663 20.6352C39.3053 20.6352 38.5567 20.8276 37.8901 21.1946C37.2235 21.5617 36.6606 22.0913 36.2536 22.7343C35.8467 23.3773 35.609 24.1128 35.5626 24.8723C35.5163 25.6319 35.6628 26.3908 35.9885 27.0785C36.0909 27.2947 36.0754 27.5482 35.9475 27.7503C35.8196 27.9523 35.5971 28.0748 35.358 28.0748L26.6699 28.0747C26.5661 28.0747 26.4632 28.0952 26.3673 28.1349C26.2713 28.1747 26.1842 28.2329 26.1107 28.3064C26.0373 28.3798 25.979 28.467 25.9393 28.5629C25.8996 28.6589 25.8791 28.7617 25.8791 28.8656L25.8792 36.8094C25.8792 37.0485 25.7567 37.271 25.5546 37.3989C25.3525 37.5268 25.099 37.5423 24.8829 37.4399C24.1952 37.1142 23.4362 36.9677 22.6767 37.014C21.9171 37.0604 21.1817 37.2981 20.5387 37.705C19.8956 38.112 19.366 38.6749 18.999 39.3415C18.632 40.0081 18.4395 40.7567 18.4395 41.5177C18.4395 42.2786 18.632 43.0272 18.999 43.6938C19.366 44.3604 19.8956 44.9234 20.5387 45.3303C21.1817 45.7373 21.9171 45.975 22.6767 46.0213C23.4362 46.0677 24.1952 45.9212 24.8829 45.5954C25.099 45.4931 25.3525 45.5086 25.5546 45.6364C25.7567 45.7643 25.8792 45.9868 25.8792 46.226L25.8791 54.1698C25.8791 54.2736 25.8996 54.3765 25.9393 54.4724C25.979 54.5684 26.0373 54.6555 26.1107 54.729C26.1842 54.8024 26.2713 54.8607 26.3673 54.9004C26.4632 54.9402 26.5661 54.9606 26.6699 54.9606L53.4626 54.9606C53.6723 54.9606 53.8735 54.8773 54.0218 54.729C54.1701 54.5807 54.2534 54.3795 54.2534 54.1698L54.2535 47.2229C53.6395 47.3878 53.0006 47.4531 52.3613 47.4141C51.3669 47.3534 50.404 47.0422 49.5621 46.5094C48.7202 45.9766 48.0268 45.2396 47.5463 44.3668C47.0658 43.4941 46.8138 42.514 46.8138 41.5177C46.8138 40.5214 47.0658 39.5413 47.5463 38.6685C48.0268 37.7958 48.7202 37.0587 49.5621 36.526C50.404 35.9932 51.3669 35.682 52.3613 35.6213C53.0006 35.5823 53.6395 35.6476 54.2535 35.8125L54.2534 28.8655C54.2534 28.6558 54.1701 28.4547 54.0218 28.3064C53.8735 28.1581 53.6723 28.0747 53.4626 28.0747L44.7746 28.0748C44.5354 28.0748 44.3129 27.9523 44.185 27.7503C44.0571 27.5482 44.0417 27.2947 44.144 27.0785C44.4697 26.3908 44.6162 25.6319 44.5699 24.8723C44.5235 24.1128 44.2858 23.3773 43.8789 22.7343C43.472 22.0913 42.909 21.5617 42.2424 21.1946C41.5758 20.8276 40.8272 20.6352 40.0663 20.6352ZM37.2171 19.9723C38.0899 19.4918 39.07 19.2398 40.0663 19.2398C41.0625 19.2398 42.0426 19.4918 42.9154 19.9723C43.7881 20.4528 44.5252 21.1463 45.058 21.9881C45.5907 22.83 45.902 23.7929 45.9626 24.7873C46.0017 25.4266 45.9363 26.0655 45.7714 26.6795L53.4626 26.6794C54.0424 26.6794 54.5984 26.9097 55.0084 27.3197C55.4184 27.7297 55.6487 28.2857 55.6487 28.8655L55.6488 36.8094C55.6488 37.0485 55.5263 37.271 55.3243 37.3989C55.1222 37.5268 54.8687 37.5423 54.6525 37.4399C53.9648 37.1142 53.2059 36.9677 52.4463 37.014C51.6868 37.0604 50.9513 37.2981 50.3083 37.705C49.6653 38.112 49.1356 38.6749 48.7686 39.3415C48.4016 40.0081 48.2092 40.7567 48.2092 41.5177C48.2092 42.2786 48.4016 43.0272 48.7686 43.6938C49.1356 44.3604 49.6653 44.9234 50.3083 45.3303C50.9513 45.7373 51.6868 45.975 52.4463 46.0213C53.2059 46.0677 53.9648 45.9212 54.6525 45.5954C54.8687 45.4931 55.1222 45.5085 55.3243 45.6364C55.5263 45.7643 55.6488 45.9868 55.6488 46.226L55.6487 54.1698C55.6487 54.7496 55.4184 55.3057 55.0084 55.7156C54.5984 56.1256 54.0424 56.3559 53.4626 56.3559L26.6699 56.356C26.3828 56.356 26.0985 56.2994 25.8333 56.1895C25.5681 56.0797 25.3271 55.9186 25.1241 55.7156C24.9211 55.5126 24.76 55.2716 24.6502 55.0064C24.5403 54.7411 24.4838 54.4569 24.4838 54.1698L24.4838 47.2229C23.8698 47.3878 23.2309 47.4531 22.5917 47.4141C21.5973 47.3534 20.6343 47.0422 19.7925 46.5094C18.9506 45.9766 18.2572 45.2396 17.7767 44.3668C17.2961 43.4941 17.0442 42.514 17.0442 41.5177C17.0442 40.5214 17.2961 39.5413 17.7767 38.6685C18.2572 37.7958 18.9506 37.0587 19.7925 36.526C20.6343 35.9932 21.5973 35.682 22.5917 35.6213C23.2309 35.5823 23.8698 35.6476 24.4838 35.8125L24.4838 28.8656C24.4838 28.5785 24.5403 28.2942 24.6502 28.029C24.76 27.7637 24.9211 27.5227 25.1241 27.3197C25.3271 27.1167 25.5681 26.9557 25.8333 26.8458C26.0986 26.7359 26.3829 26.6794 26.67 26.6794L34.3611 26.6795C34.1962 26.0655 34.1309 25.4266 34.1699 24.7873C34.2306 23.7929 34.5418 22.83 35.0745 21.9881C35.6073 21.1463 36.3444 20.4528 37.2171 19.9723Z" fill="white" fill-opacity="0.87"/>
</g>
<defs>
<filter id="filter0_dd_8607_38652" x="0.928571" y="0.428571" width="77.1429" height="77.1429" filterUnits="userSpaceOnUse" color-interpolation-filters="sRGB">
<feFlood flood-opacity="0" result="BackgroundImageFix"/>
<feColorMatrix in="SourceAlpha" type="matrix" values="0 0 0 0 0 0 0 0 0 0 0 0 0 0 0 0 0 0 127 0" result="hardAlpha"/>
<feOffset dx="2.85714" dy="2.85714"/>
<feGaussianBlur stdDeviation="2.85714"/>
<feColorMatrix type="matrix" values="0 0 0 0 0 0 0 0 0 0 0 0 0 0 0 0 0 0 0.25 0"/>
<feBlend mode="normal" in2="BackgroundImageFix" result="effect1_dropShadow_8607_38652"/>
<feColorMatrix in="SourceAlpha" type="matrix" values="0 0 0 0 0 0 0 0 0 0 0 0 0 0 0 0 0 0 127 0" result="hardAlpha"/>
<feOffset dx="-2.85714" dy="-2.85714"/>
<feGaussianBlur stdDeviation="2.85714"/>
<feColorMatrix type="matrix" values="0 0 0 0 1 0 0 0 0 1 0 0 0 0 1 0 0 0 0.15 0"/>
<feBlend mode="normal" in2="effect1_dropShadow_8607_38652" result="effect2_dropShadow_8607_38652"/>
<feBlend mode="normal" in="SourceGraphic" in2="effect2_dropShadow_8607_38652" result="shape"/>
</filter>
</defs>
</svg>
