<svg width="78" height="78" viewBox="0 0 78 78" fill="none" xmlns="http://www.w3.org/2000/svg">
<g filter="url(#filter0_dd_8529_39601)">
<path fill-rule="evenodd" clip-rule="evenodd" d="M39 10.3953C23.2021 10.3953 10.3953 23.2021 10.3953 39C10.3953 54.7979 23.2021 67.6046 39 67.6046C54.7979 67.6046 67.6047 54.7979 67.6047 39C67.6047 23.2021 54.7979 10.3953 39 10.3953ZM9 39C9 22.4315 22.4315 9 39 9C55.5685 9 69 22.4315 69 39C69 55.5685 55.5685 69 39 69C22.4315 69 9 55.5685 9 39Z" fill="white" fill-opacity="0.87"/>
<path fill-rule="evenodd" clip-rule="evenodd" d="M39.5663 20.6352C38.8053 20.6352 38.0567 20.8276 37.3901 21.1946C36.7235 21.5617 36.1606 22.0913 35.7536 22.7343C35.3467 23.3773 35.109 24.1128 35.0626 24.8723C35.0163 25.6319 35.1628 26.3908 35.4885 27.0785C35.5909 27.2947 35.5754 27.5482 35.4475 27.7503C35.3196 27.9523 35.0971 28.0748 34.858 28.0748L26.1699 28.0747C26.0661 28.0747 25.9632 28.0952 25.8673 28.1349C25.7713 28.1747 25.6842 28.2329 25.6107 28.3064C25.5373 28.3798 25.479 28.467 25.4393 28.5629C25.3996 28.6589 25.3791 28.7617 25.3791 28.8656L25.3792 36.8094C25.3792 37.0485 25.2567 37.271 25.0546 37.3989C24.8525 37.5268 24.599 37.5423 24.3829 37.4399C23.6952 37.1142 22.9362 36.9677 22.1767 37.014C21.4171 37.0604 20.6817 37.2981 20.0387 37.705C19.3956 38.112 18.866 38.6749 18.499 39.3415C18.132 40.0081 17.9395 40.7567 17.9395 41.5177C17.9395 42.2786 18.132 43.0272 18.499 43.6938C18.866 44.3604 19.3956 44.9234 20.0387 45.3303C20.6817 45.7373 21.4171 45.975 22.1767 46.0213C22.9362 46.0677 23.6952 45.9212 24.3829 45.5954C24.599 45.4931 24.8525 45.5086 25.0546 45.6364C25.2567 45.7643 25.3792 45.9868 25.3792 46.226L25.3791 54.1698C25.3791 54.2736 25.3996 54.3765 25.4393 54.4724C25.479 54.5684 25.5373 54.6555 25.6107 54.729C25.6842 54.8024 25.7713 54.8607 25.8673 54.9004C25.9632 54.9402 26.0661 54.9606 26.1699 54.9606L52.9626 54.9606C53.1723 54.9606 53.3735 54.8773 53.5218 54.729C53.6701 54.5807 53.7534 54.3795 53.7534 54.1698L53.7535 47.2229C53.1395 47.3878 52.5006 47.4531 51.8613 47.4141C50.8669 47.3534 49.904 47.0422 49.0621 46.5094C48.2202 45.9766 47.5268 45.2396 47.0463 44.3668C46.5658 43.4941 46.3138 42.514 46.3138 41.5177C46.3138 40.5214 46.5658 39.5413 47.0463 38.6685C47.5268 37.7958 48.2202 37.0587 49.0621 36.526C49.904 35.9932 50.8669 35.682 51.8613 35.6213C52.5006 35.5823 53.1395 35.6476 53.7535 35.8125L53.7534 28.8655C53.7534 28.6558 53.6701 28.4547 53.5218 28.3064C53.3735 28.1581 53.1723 28.0747 52.9626 28.0747L44.2746 28.0748C44.0354 28.0748 43.8129 27.9523 43.685 27.7503C43.5571 27.5482 43.5417 27.2947 43.644 27.0785C43.9697 26.3908 44.1162 25.6319 44.0699 24.8723C44.0235 24.1128 43.7858 23.3773 43.3789 22.7343C42.972 22.0913 42.409 21.5617 41.7424 21.1946C41.0758 20.8276 40.3272 20.6352 39.5663 20.6352ZM36.7171 19.9723C37.5899 19.4918 38.57 19.2398 39.5663 19.2398C40.5625 19.2398 41.5426 19.4918 42.4154 19.9723C43.2881 20.4528 44.0252 21.1463 44.558 21.9881C45.0907 22.83 45.402 23.7929 45.4626 24.7873C45.5017 25.4266 45.4363 26.0655 45.2714 26.6795L52.9626 26.6794C53.5424 26.6794 54.0984 26.9097 54.5084 27.3197C54.9184 27.7297 55.1487 28.2857 55.1487 28.8655L55.1488 36.8094C55.1488 37.0485 55.0263 37.271 54.8243 37.3989C54.6222 37.5268 54.3687 37.5423 54.1525 37.4399C53.4648 37.1142 52.7059 36.9677 51.9463 37.014C51.1868 37.0604 50.4513 37.2981 49.8083 37.705C49.1653 38.112 48.6356 38.6749 48.2686 39.3415C47.9016 40.0081 47.7092 40.7567 47.7092 41.5177C47.7092 42.2786 47.9016 43.0272 48.2686 43.6938C48.6356 44.3604 49.1653 44.9234 49.8083 45.3303C50.4513 45.7373 51.1868 45.975 51.9463 46.0213C52.7059 46.0677 53.4648 45.9212 54.1525 45.5954C54.3687 45.4931 54.6222 45.5085 54.8243 45.6364C55.0263 45.7643 55.1488 45.9868 55.1488 46.226L55.1487 54.1698C55.1487 54.7496 54.9184 55.3057 54.5084 55.7156C54.0984 56.1256 53.5424 56.3559 52.9626 56.3559L26.1699 56.356C25.8828 56.356 25.5985 56.2994 25.3333 56.1895C25.0681 56.0797 24.8271 55.9186 24.6241 55.7156C24.4211 55.5126 24.26 55.2716 24.1502 55.0064C24.0403 54.7411 23.9838 54.4569 23.9838 54.1698L23.9838 47.2229C23.3698 47.3878 22.7309 47.4531 22.0917 47.4141C21.0973 47.3534 20.1343 47.0422 19.2925 46.5094C18.4506 45.9766 17.7572 45.2396 17.2767 44.3668C16.7961 43.4941 16.5442 42.514 16.5442 41.5177C16.5442 40.5214 16.7961 39.5413 17.2767 38.6685C17.7572 37.7958 18.4506 37.0587 19.2925 36.526C20.1343 35.9932 21.0973 35.682 22.0917 35.6213C22.7309 35.5823 23.3698 35.6476 23.9838 35.8125L23.9838 28.8656C23.9838 28.5785 24.0403 28.2942 24.1502 28.029C24.26 27.7637 24.4211 27.5227 24.6241 27.3197C24.8271 27.1167 25.0681 26.9557 25.3333 26.8458C25.5986 26.7359 25.8829 26.6794 26.17 26.6794L33.8611 26.6795C33.6962 26.0655 33.6309 25.4266 33.6699 24.7873C33.7306 23.7929 34.0418 22.83 34.5745 21.9881C35.1073 21.1463 35.8444 20.4528 36.7171 19.9723Z" fill="white" fill-opacity="0.87"/>
</g>
<defs>
<filter id="filter0_dd_8529_39601" x="0.428571" y="0.428571" width="77.1429" height="77.1429" filterUnits="userSpaceOnUse" color-interpolation-filters="sRGB">
<feFlood flood-opacity="0" result="BackgroundImageFix"/>
<feColorMatrix in="SourceAlpha" type="matrix" values="0 0 0 0 0 0 0 0 0 0 0 0 0 0 0 0 0 0 127 0" result="hardAlpha"/>
<feOffset dx="2.85714" dy="2.85714"/>
<feGaussianBlur stdDeviation="2.85714"/>
<feColorMatrix type="matrix" values="0 0 0 0 0 0 0 0 0 0 0 0 0 0 0 0 0 0 0.25 0"/>
<feBlend mode="normal" in2="BackgroundImageFix" result="effect1_dropShadow_8529_39601"/>
<feColorMatrix in="SourceAlpha" type="matrix" values="0 0 0 0 0 0 0 0 0 0 0 0 0 0 0 0 0 0 127 0" result="hardAlpha"/>
<feOffset dx="-2.85714" dy="-2.85714"/>
<feGaussianBlur stdDeviation="2.85714"/>
<feColorMatrix type="matrix" values="0 0 0 0 1 0 0 0 0 1 0 0 0 0 1 0 0 0 0.15 0"/>
<feBlend mode="normal" in2="effect1_dropShadow_8529_39601" result="effect2_dropShadow_8529_39601"/>
<feBlend mode="normal" in="SourceGraphic" in2="effect2_dropShadow_8529_39601" result="shape"/>
</filter>
</defs>
</svg>
