<svg width="79" height="107" viewBox="0 0 79 107" fill="none" xmlns="http://www.w3.org/2000/svg">
<g filter="url(#filter0_dd_8148_54727)">
<path fill-rule="evenodd" clip-rule="evenodd" d="M39.5 10.3953C23.7021 10.3953 10.8953 23.2021 10.8953 39C10.8953 54.7979 23.7021 67.6046 39.5 67.6046C55.2979 67.6046 68.1047 54.7979 68.1047 39C68.1047 23.2021 55.2979 10.3953 39.5 10.3953ZM9.5 39C9.5 22.4315 22.9315 9 39.5 9C56.0685 9 69.5 22.4315 69.5 39C69.5 55.5685 56.0685 69 39.5 69C22.9315 69 9.5 55.5685 9.5 39Z" fill="white" fill-opacity="0.87"/>
<path fill-rule="evenodd" clip-rule="evenodd" d="M39.341 20.6352C35.6464 20.6352 32.6513 23.6302 32.6513 27.3249C32.6513 31.0195 35.6464 34.0145 39.341 34.0145C43.0356 34.0145 46.0307 31.0195 46.0307 27.3249C46.0307 23.6302 43.0356 20.6352 39.341 20.6352ZM31.256 27.3249C31.256 22.8596 34.8758 19.2398 39.341 19.2398C43.8063 19.2398 47.4261 22.8596 47.4261 27.3249C47.4261 31.7901 43.8063 35.4099 39.341 35.4099C34.8758 35.4099 31.256 31.7901 31.256 27.3249Z" fill="white" fill-opacity="0.87"/>
<path fill-rule="evenodd" clip-rule="evenodd" d="M35.8453 39.0145C28.7977 39.0145 23.0907 44.7215 23.0907 51.7691C23.0907 54.0743 24.952 55.9356 27.2571 55.9356H50.7416C53.0454 55.9356 54.9092 54.0752 54.9233 51.767C54.9221 44.7204 49.2156 39.0145 42.1686 39.0145H35.8453ZM21.6953 51.7691C21.6953 43.9509 28.027 37.6192 35.8453 37.6192H42.1686C49.9869 37.6192 56.3186 43.9509 56.3186 51.7691L56.3186 51.7731C56.3012 54.845 53.8181 57.3309 50.7416 57.3309H27.2571C24.1813 57.3309 21.6953 54.8449 21.6953 51.7691Z" fill="white" fill-opacity="0.87"/>
</g>
<path d="M11.7401 89.9091V103H10.1549V91.3153H3.55833V103H1.9731V89.9091H11.7401ZM14.7332 106.682V93.1818H16.1906V94.7415H16.3696C16.4804 94.571 16.6338 94.3537 16.8298 94.0895C17.0301 93.821 17.3156 93.5824 17.6863 93.3736C18.0613 93.1605 18.5684 93.054 19.2077 93.054C20.0344 93.054 20.7631 93.2607 21.3937 93.674C22.0244 94.0874 22.5166 94.6733 22.8703 95.4318C23.224 96.1903 23.4008 97.0852 23.4008 98.1165C23.4008 99.1562 23.224 100.058 22.8703 100.82C22.5166 101.579 22.0265 102.167 21.4001 102.585C20.7737 102.998 20.0514 103.205 19.2332 103.205C18.6025 103.205 18.0976 103.1 17.7183 102.891C17.339 102.678 17.0471 102.437 16.8426 102.169C16.6381 101.896 16.4804 101.67 16.3696 101.491H16.2417V106.682H14.7332ZM16.2162 98.0909C16.2162 98.8324 16.3248 99.4865 16.5422 100.053C16.7595 100.616 17.077 101.057 17.4946 101.376C17.9122 101.692 18.4236 101.849 19.0287 101.849C19.6594 101.849 20.1856 101.683 20.6075 101.351C21.0336 101.014 21.3532 100.562 21.5663 99.9957C21.7836 99.4247 21.8923 98.7898 21.8923 98.0909C21.8923 97.4006 21.7858 96.7784 21.5727 96.2244C21.3639 95.6662 21.0464 95.2251 20.6203 94.9013C20.1984 94.5732 19.6679 94.4091 19.0287 94.4091C18.415 94.4091 17.8994 94.5646 17.4818 94.8757C17.0642 95.1825 16.7488 95.6129 16.5358 96.1669C16.3227 96.7166 16.2162 97.358 16.2162 98.0909ZM29.6906 103.205C28.8042 103.205 28.0265 102.994 27.3575 102.572C26.6927 102.15 26.1729 101.56 25.7979 100.801C25.4271 100.043 25.2417 99.1562 25.2417 98.142C25.2417 97.1193 25.4271 96.2266 25.7979 95.4638C26.1729 94.701 26.6927 94.1087 27.3575 93.6868C28.0265 93.2649 28.8042 93.054 29.6906 93.054C30.577 93.054 31.3525 93.2649 32.0173 93.6868C32.6863 94.1087 33.2062 94.701 33.577 95.4638C33.952 96.2266 34.1395 97.1193 34.1395 98.142C34.1395 99.1562 33.952 100.043 33.577 100.801C33.2062 101.56 32.6863 102.15 32.0173 102.572C31.3525 102.994 30.577 103.205 29.6906 103.205ZM29.6906 101.849C30.3639 101.849 30.9179 101.677 31.3525 101.332C31.7872 100.987 32.1089 100.533 32.3177 99.9702C32.5265 99.4077 32.6309 98.7983 32.6309 98.142C32.6309 97.4858 32.5265 96.8743 32.3177 96.3075C32.1089 95.7408 31.7872 95.2827 31.3525 94.9332C30.9179 94.5838 30.3639 94.4091 29.6906 94.4091C29.0173 94.4091 28.4633 94.5838 28.0287 94.9332C27.594 95.2827 27.2723 95.7408 27.0635 96.3075C26.8547 96.8743 26.7503 97.4858 26.7503 98.142C26.7503 98.7983 26.8547 99.4077 27.0635 99.9702C27.2723 100.533 27.594 100.987 28.0287 101.332C28.4633 101.677 29.0173 101.849 29.6906 101.849ZM40.4308 106.349V89.9091H41.9394V106.349H40.4308ZM40.4308 103.205C39.7661 103.205 39.161 103.085 38.6155 102.847C38.07 102.604 37.6013 102.261 37.2093 101.817C36.8172 101.37 36.5146 100.835 36.3016 100.213C36.0885 99.5909 35.982 98.9006 35.982 98.142C35.982 97.375 36.0885 96.6804 36.3016 96.0582C36.5146 95.4318 36.8172 94.8949 37.2093 94.4474C37.6013 94 38.07 93.657 38.6155 93.4183C39.161 93.1754 39.7661 93.054 40.4308 93.054H40.8911V103.205H40.4308ZM40.4308 101.849H40.6865V94.4091H40.4308C39.928 94.4091 39.4912 94.5114 39.1205 94.7159C38.7497 94.9162 38.4429 95.1911 38.2 95.5405C37.9614 95.8857 37.7824 96.282 37.6631 96.7294C37.548 97.1768 37.4905 97.6477 37.4905 98.142C37.4905 98.7983 37.5949 99.4077 37.8037 99.9702C38.0125 100.533 38.3343 100.987 38.7689 101.332C39.2036 101.677 39.7575 101.849 40.4308 101.849ZM41.9394 103.205H41.4791V93.054H41.9394C42.6041 93.054 43.2093 93.1754 43.7547 93.4183C44.3002 93.657 44.7689 94 45.161 94.4474C45.553 94.8949 45.8556 95.4318 46.0686 96.0582C46.2817 96.6804 46.3882 97.375 46.3882 98.142C46.3882 98.9006 46.2817 99.5909 46.0686 100.213C45.8556 100.835 45.553 101.37 45.161 101.817C44.7689 102.261 44.3002 102.604 43.7547 102.847C43.2093 103.085 42.6041 103.205 41.9394 103.205ZM41.9394 101.849C42.4465 101.849 42.8833 101.751 43.2497 101.555C43.6205 101.355 43.9252 101.082 44.1638 100.737C44.4067 100.388 44.5857 99.9915 44.7007 99.5483C44.82 99.1009 44.8797 98.6321 44.8797 98.142C44.8797 97.4858 44.7753 96.8743 44.5665 96.3075C44.3577 95.7408 44.036 95.2827 43.6013 94.9332C43.1666 94.5838 42.6127 94.4091 41.9394 94.4091H41.6837V101.849H41.9394ZM50.2027 100.776L54.9328 93.1818H56.6714V103H55.1629V95.4062L50.4584 103H48.6942V93.1818H50.2027V100.776ZM58.5651 103V101.594H58.923C59.2171 101.594 59.4621 101.536 59.6581 101.421C59.8541 101.302 60.0118 101.095 60.1311 100.801C60.2547 100.503 60.3485 100.089 60.4124 99.5611C60.4806 99.0284 60.5296 98.3509 60.5594 97.5284L60.7384 93.1818H67.2838V103H65.7753V94.5881H62.1702L62.0168 98.0909C61.9827 98.8963 61.9102 99.6058 61.7994 100.219C61.6929 100.829 61.5289 101.34 61.3073 101.754C61.0899 102.167 60.8002 102.478 60.4379 102.687C60.0757 102.896 59.6219 103 59.0764 103H58.5651ZM71.3556 96.7358H74.1681C75.3186 96.7358 76.1986 97.0277 76.808 97.6115C77.4173 98.1953 77.722 98.9347 77.722 99.8295C77.722 100.418 77.5857 100.952 77.3129 101.434C77.0402 101.911 76.6396 102.293 76.1112 102.578C75.5828 102.859 74.9351 103 74.1681 103H70.0516V93.1818H71.5601V101.594H74.1681C74.7646 101.594 75.2547 101.436 75.6382 101.121C76.0218 100.805 76.2135 100.401 76.2135 99.9062C76.2135 99.3864 76.0218 98.9624 75.6382 98.6342C75.2547 98.3061 74.7646 98.142 74.1681 98.142H71.3556V96.7358Z" fill="white" fill-opacity="0.87"/>
<defs>
<filter id="filter0_dd_8148_54727" x="0.928571" y="0.428571" width="77.1429" height="77.1429" filterUnits="userSpaceOnUse" color-interpolation-filters="sRGB">
<feFlood flood-opacity="0" result="BackgroundImageFix"/>
<feColorMatrix in="SourceAlpha" type="matrix" values="0 0 0 0 0 0 0 0 0 0 0 0 0 0 0 0 0 0 127 0" result="hardAlpha"/>
<feOffset dx="2.85714" dy="2.85714"/>
<feGaussianBlur stdDeviation="2.85714"/>
<feColorMatrix type="matrix" values="0 0 0 0 0 0 0 0 0 0 0 0 0 0 0 0 0 0 0.25 0"/>
<feBlend mode="normal" in2="BackgroundImageFix" result="effect1_dropShadow_8148_54727"/>
<feColorMatrix in="SourceAlpha" type="matrix" values="0 0 0 0 0 0 0 0 0 0 0 0 0 0 0 0 0 0 127 0" result="hardAlpha"/>
<feOffset dx="-2.85714" dy="-2.85714"/>
<feGaussianBlur stdDeviation="2.85714"/>
<feColorMatrix type="matrix" values="0 0 0 0 1 0 0 0 0 1 0 0 0 0 1 0 0 0 0.15 0"/>
<feBlend mode="normal" in2="effect1_dropShadow_8148_54727" result="effect2_dropShadow_8148_54727"/>
<feBlend mode="normal" in="SourceGraphic" in2="effect2_dropShadow_8148_54727" result="shape"/>
</filter>
</defs>
</svg>
